# xmcd
#
# Track frame offsets:
#	150
#	16430
#	50150
#	74460
#
# Disc length: 1212 seconds
#
# Revision: 0
# Processed by: cddbd v1.5.2PL0 Copyright (c) Steve Scherf et al.
# Submitted via: audiograbber 1.83.01
#
DISCID=3604ba04
DTITLE=Mikle - Sinä Ja Hän [CDM)
DYEAR=1996
DGENRE=Dance
TTITLE0=Sinä Ja Hän (Radio Cut)
TTITLE1=Sinä Ja Hän (1+1=3 Full Version)
TTITLE2=Sinä Ja Hän (1+1=3 Cut)
TTITLE3=Sinä Ja Hän (Radio Cut Instrumental)
EXTD=TR.
EXTT0=
EXTT1=
EXTT2=
EXTT3=
PLAYORDER=
